<svg width="259" height="59" viewBox="0 0 259 59" fill="none" xmlns="http://www.w3.org/2000/svg">
<g clip-path="url(#clip0_2175_660)">
<path d="M86.164 33.216C85.058 34.5454 83.6353 35.5751 82.027 36.2102C80.4729 36.8237 78.8171 37.1386 77.1464 37.1384C75.5972 37.1529 74.0589 36.8788 72.6101 36.33C71.2686 35.8243 70.0369 35.0653 68.9821 34.0943C67.9493 33.1252 67.1257 31.9551 66.5618 30.6559C65.9764 29.2545 65.675 27.7508 65.675 26.232C65.675 24.7132 65.9764 23.2095 66.5618 21.808C67.1361 20.4999 67.9696 19.3217 69.0121 18.3447C70.0673 17.3656 71.3052 16.6042 72.655 16.104C74.091 15.5675 75.6135 15.3002 77.1464 15.3156C78.8818 15.2983 80.6013 15.6487 82.1916 16.3436C83.723 17.0029 85.0872 17.9971 86.1839 19.253L82.0369 22.2472C81.4486 21.521 80.6998 20.9411 79.8495 20.5532C78.9992 20.1652 78.0705 19.9798 77.1364 20.0115C76.2419 20.0025 75.3545 20.1722 74.5264 20.5105C73.7954 20.8018 73.1339 21.2439 72.5852 21.808C72.0448 22.37 71.6328 23.0425 71.3775 23.7792C70.8174 25.3955 70.8174 27.1533 71.3775 28.7696C71.6358 29.5156 72.0529 30.1967 72.6001 30.7657C73.152 31.3343 73.8189 31.7784 74.5564 32.0682C75.3886 32.388 76.2749 32.5439 77.1663 32.5273C78.0868 32.5373 79.0005 32.3678 79.8561 32.0283C80.7159 31.6694 81.4748 31.1058 82.0669 30.3865L86.164 33.216Z" fill="#003B67"/>
<path d="M106.075 21.8428L96.7929 43.0668H91.598L94.2578 36.5893L87.5059 21.8428H93.2697L96.7331 30.8005H96.7929L100.286 21.8428H106.075Z" fill="#003B67"/>
<path d="M113.541 15.7495V23.4247H113.66C114.119 22.7355 114.76 22.1877 115.512 21.8428C116.243 21.513 117.036 21.3428 117.837 21.3437C118.715 21.3439 119.585 21.5011 120.407 21.8078C121.245 22.1164 122.005 22.6053 122.633 23.2401C123.309 23.937 123.837 24.7637 124.185 25.6704C124.593 26.7784 124.789 27.9532 124.764 29.1337C124.775 30.2189 124.636 31.3005 124.35 32.3475C124.1 33.2573 123.667 34.1064 123.077 34.8427C122.494 35.5528 121.748 36.1111 120.901 36.4695C119.904 36.88 118.831 37.0788 117.753 37.0534C117.35 37.0531 116.949 37.013 116.555 36.9336C116.159 36.8535 115.774 36.7279 115.407 36.5593C115.04 36.3914 114.702 36.1637 114.409 35.8856C114.104 35.605 113.86 35.2655 113.69 34.8876H113.481L112.912 36.6192H108.316V15.7495H113.541ZM113.571 29.1536C113.558 29.6836 113.65 30.2109 113.84 30.7056C114.001 31.1161 114.246 31.4884 114.559 31.7985C114.842 32.0808 115.182 32.2987 115.557 32.4373C115.913 32.575 116.292 32.646 116.675 32.6469C117.02 32.6426 117.361 32.5626 117.673 32.4123C118.018 32.245 118.327 32.011 118.581 31.7237C118.865 31.3988 119.088 31.0252 119.24 30.6208C119.415 30.1517 119.501 29.6542 119.494 29.1536C119.499 28.7034 119.412 28.2569 119.24 27.8412C119.08 27.4655 118.845 27.1261 118.551 26.8431C118.269 26.5692 117.941 26.3463 117.583 26.1844C117.245 26.0293 116.877 25.9476 116.505 25.9448C116.111 25.9441 115.723 26.0364 115.372 26.2143C115.015 26.3922 114.695 26.636 114.429 26.9329C114.16 27.2371 113.944 27.5847 113.79 27.9609C113.632 28.3439 113.551 28.7542 113.551 29.1686" fill="#003B67"/>
<path d="M143.872 30.3514H132.893C133.087 30.9542 133.407 31.5088 133.832 31.9782C134.045 32.2099 134.307 32.3924 134.598 32.513C134.889 32.6337 135.203 32.6896 135.518 32.6769C136.04 32.6912 136.556 32.5691 137.015 32.3226C137.48 32.0444 137.895 31.6902 138.243 31.2746L142.689 33.3656C142.344 33.8926 141.938 34.3782 141.482 34.8128C140.996 35.2733 140.455 35.6706 139.87 35.9955C139.238 36.3401 138.568 36.6098 137.874 36.7989C137.124 37.0029 136.35 37.1036 135.573 37.0984C134.529 37.1005 133.495 36.897 132.529 36.4995C131.571 36.1133 130.69 35.5571 129.929 34.8577C129.168 34.1542 128.556 33.3059 128.128 32.3625C127.676 31.3851 127.446 30.3201 127.454 29.2435C127.447 28.1799 127.677 27.128 128.128 26.1645C129.009 24.2645 130.576 22.7674 132.514 21.9726C133.483 21.5666 134.523 21.3579 135.573 21.3587C136.733 21.3405 137.885 21.5543 138.962 21.9875C139.931 22.3773 140.806 22.9674 141.532 23.7192C142.253 24.481 142.816 25.3783 143.188 26.3591C143.596 27.4344 143.827 28.5686 143.872 29.7176V30.3514ZM138.203 27.9909C138.101 27.7277 137.975 27.4739 137.829 27.2324C137.685 26.9901 137.509 26.7685 137.305 26.5737C137.105 26.3847 136.874 26.2326 136.621 26.1245C136.326 26.0082 136.01 25.9522 135.693 25.9599C135.059 25.9325 134.437 26.1404 133.946 26.5437C133.498 26.9352 133.155 27.4327 132.948 27.9909H138.203Z" fill="#003B67"/>
<path d="M156.653 26.7684C156.113 26.4742 155.505 26.3295 154.891 26.3492C154.482 26.3371 154.076 26.4299 153.713 26.6187C153.394 26.7894 153.121 27.0362 152.92 27.3373C152.712 27.6493 152.567 27.9983 152.491 28.3653C152.398 28.7612 152.351 29.1664 152.351 29.573V36.6194H147.131V21.8429H151.518L152.231 23.4847H152.351C152.668 22.8468 153.159 22.3118 153.768 21.9417C154.376 21.5716 155.077 21.3816 155.789 21.3937C156.315 21.3835 156.84 21.4593 157.341 21.6183C157.83 21.7941 158.299 22.0182 158.744 22.287L156.653 26.7684Z" fill="#003B67"/>
<path d="M173.311 15.7494C174.317 15.7439 175.316 15.9128 176.265 16.2484C177.119 16.5409 177.902 17.0083 178.566 17.6208C179.211 18.2296 179.721 18.9675 180.063 19.7866C180.771 21.6271 180.771 23.6651 180.063 25.5056C179.731 26.3198 179.219 27.0484 178.566 27.6365C177.892 28.2407 177.105 28.7039 176.25 28.9988C175.301 29.3321 174.302 29.5009 173.296 29.4979H166.678V36.664H161.429V15.7494H173.311ZM172.921 24.9516C173.547 24.9701 174.158 24.7628 174.643 24.3678C174.883 24.1539 175.07 23.888 175.191 23.5904C175.312 23.2929 175.364 22.9716 175.342 22.6511C175.363 22.3218 175.311 21.9919 175.191 21.6849C175.07 21.3778 174.883 21.1011 174.643 20.8745C174.164 20.466 173.551 20.2491 172.921 20.2657H166.678V24.9516H172.921Z" fill="#003B67"/>
<path d="M198.362 30.3513H187.383C187.577 30.9541 187.897 31.5086 188.322 31.9781C188.535 32.2098 188.797 32.3923 189.088 32.5129C189.379 32.6336 189.693 32.6895 190.008 32.6768C190.53 32.6899 191.045 32.5679 191.506 32.3225C191.968 32.0427 192.381 31.6887 192.728 31.2745L197.175 33.3655C196.829 33.8925 196.424 34.3781 195.967 34.8127C195.482 35.2743 194.941 35.6718 194.355 35.9954C193.723 36.34 193.053 36.6096 192.359 36.7988C191.611 37.0031 190.839 37.1038 190.063 37.0982C189.018 37.1002 187.982 36.8968 187.014 36.4994C186.057 36.1132 185.178 35.5569 184.419 34.8576C183.657 34.1543 183.043 33.306 182.613 32.3624C182.161 31.385 181.931 30.32 181.939 29.2434C181.932 28.1798 182.162 27.1279 182.613 26.1644C183.495 24.2644 185.061 22.7673 186.999 21.9725C187.97 21.5664 189.011 21.3577 190.063 21.3586C191.223 21.3413 192.375 21.5551 193.452 21.9874C194.419 22.3785 195.293 22.9685 196.017 23.7191C196.738 24.4809 197.301 25.3782 197.674 26.359C198.083 27.434 198.315 28.5682 198.362 29.7175V30.3513ZM192.688 27.9908C192.586 27.7276 192.461 27.4738 192.314 27.2323C192.176 26.9924 192.009 26.771 191.815 26.5736C191.614 26.3845 191.38 26.2324 191.126 26.1244C190.831 26.0081 190.515 25.9521 190.198 25.9598C189.564 25.9324 188.942 26.1403 188.451 26.5436C188.005 26.9364 187.662 27.4335 187.453 27.9908H192.688Z" fill="#003B67"/>
<path d="M217.44 21.8427V36.6192H212.839L212.185 34.8576H212.091C211.919 35.2346 211.675 35.5738 211.372 35.8557C211.073 36.1298 210.737 36.36 210.374 36.5393C210.003 36.7195 209.611 36.8503 209.206 36.9286C208.818 37.0067 208.424 37.0468 208.028 37.0484C206.954 37.0754 205.887 36.8765 204.894 36.4645C204.053 36.1033 203.31 35.5454 202.729 34.8376C202.142 34.0999 201.711 33.2512 201.461 32.3424C201.171 31.2962 201.03 30.2143 201.042 29.1287C201.016 27.949 201.209 26.7748 201.611 25.6653C201.942 24.7619 202.461 23.9388 203.133 23.25C203.761 22.6149 204.52 22.1259 205.359 21.8178C206.211 21.49 207.115 21.3209 208.028 21.3187C208.782 21.3131 209.526 21.493 210.194 21.8427C210.864 22.1931 211.411 22.7398 211.761 23.4097H211.851L212.984 21.7978L217.44 21.8427ZM209.022 32.6169C209.442 32.6288 209.861 32.5558 210.253 32.4023C210.644 32.2488 211.001 32.018 211.302 31.7236C211.622 31.3802 211.867 30.975 212.024 30.5331C212.182 30.0911 212.246 29.6216 212.215 29.1536C212.221 28.7096 212.14 28.2688 211.976 27.8561C211.823 27.4874 211.605 27.1492 211.332 26.858C211.071 26.5731 210.751 26.3484 210.394 26.1993C210.024 26.0471 209.626 25.9708 209.226 25.9747C208.833 25.9666 208.442 26.0411 208.08 26.1932C207.717 26.3453 207.39 26.5718 207.12 26.858C206.833 27.1679 206.61 27.5317 206.464 27.9283C206.319 28.3249 206.253 28.7465 206.272 29.1686C206.264 29.6631 206.345 30.1549 206.511 30.6208C206.655 31.0178 206.868 31.3862 207.14 31.7087C207.38 31.9972 207.68 32.2304 208.018 32.3924C208.328 32.5477 208.67 32.6296 209.017 32.6319" fill="#003B67"/>
<path d="M236.279 33.3356C235.547 34.4215 234.576 35.3248 233.439 35.9755C232.135 36.7282 230.648 37.1064 229.143 37.0684C228.098 37.0709 227.064 36.8674 226.099 36.4695C225.14 36.0833 224.259 35.5271 223.499 34.8277C222.738 34.1227 222.125 33.2748 221.692 32.3325C221.241 31.3551 221.013 30.2899 221.023 29.2136C221.015 28.1519 221.244 27.1018 221.692 26.1395C222.129 25.2039 222.737 24.3578 223.484 23.6443C224.229 22.924 225.105 22.3516 226.064 21.9576C227.032 21.5511 228.072 21.3424 229.123 21.3437C230.534 21.3253 231.929 21.6579 233.18 22.3119C234.352 22.9226 235.357 23.8099 236.109 24.8969L231.688 27.3472C231.431 26.9267 231.079 26.5728 230.66 26.3141C230.267 26.0879 229.825 25.9602 229.373 25.942C228.92 25.9237 228.469 26.0155 228.06 26.2094C227.699 26.3857 227.375 26.6297 227.107 26.928C226.833 27.2327 226.62 27.5867 226.478 27.971C226.328 28.3715 226.252 28.7959 226.253 29.2235C226.257 29.6368 226.33 30.0466 226.468 30.4362C226.599 30.833 226.795 31.2056 227.047 31.5391C227.289 31.8624 227.593 32.1353 227.94 32.3425C228.288 32.5516 228.687 32.6604 229.093 32.6569C229.607 32.6684 230.114 32.5334 230.555 32.2677C230.994 31.9915 231.37 31.6259 231.658 31.1947L236.279 33.3356Z" fill="#003B67"/>
<path d="M254.728 30.3513H243.749C243.943 30.9552 244.264 31.5102 244.692 31.9781C244.905 32.2106 245.167 32.3937 245.458 32.5144C245.75 32.6351 246.064 32.6905 246.379 32.6768C246.9 32.6911 247.417 32.569 247.876 32.3225C248.34 32.0441 248.753 31.6898 249.099 31.2745L253.545 33.3655C253.201 33.8937 252.796 34.3794 252.338 34.8127C251.853 35.2743 251.311 35.6718 250.726 35.9954C250.094 36.34 249.424 36.6096 248.73 36.7988C247.982 37.0031 247.209 37.1038 246.434 37.0982C245.388 37.1002 244.352 36.8968 243.385 36.4994C242.429 36.112 241.55 35.5559 240.79 34.8576C240.028 34.1543 239.414 33.306 238.983 32.3624C238.532 31.385 238.302 30.32 238.31 29.2434C238.303 28.1798 238.533 27.1279 238.983 26.1644C239.865 24.2626 241.434 22.765 243.375 21.9725C244.343 21.566 245.384 21.3573 246.434 21.3586C247.594 21.3413 248.746 21.5551 249.822 21.9874C250.79 22.3773 251.664 22.9674 252.387 23.7191C253.11 24.4796 253.674 25.3772 254.044 26.359C254.453 27.434 254.686 28.5682 254.733 29.7175L254.728 30.3513ZM249.054 27.9908C248.951 27.7276 248.826 27.4738 248.68 27.2323C248.544 26.9914 248.376 26.7698 248.181 26.5736C247.98 26.3834 247.747 26.2312 247.492 26.1244C247.198 26.0081 246.884 25.9521 246.569 25.9598C245.934 25.9305 245.312 26.1387 244.822 26.5436C244.374 26.9354 244.031 27.4328 243.824 27.9908H249.054Z" fill="#003B67"/>
<path d="M41.1207 43.7504C41.801 43.7504 42.4534 43.4802 42.9345 42.9991C43.4155 42.5181 43.6857 41.8657 43.6857 41.1854C43.6857 40.5051 43.4155 39.8527 42.9345 39.3716C42.4534 38.8906 41.801 38.6203 41.1207 38.6203C40.7484 38.6221 40.3808 38.7038 40.0428 38.8599L39.2693 38.0913L37.313 36.0054L35.8858 37.1881L37.8819 39.1842L38.8002 40.0975C38.6412 40.4363 38.5594 40.8061 38.5606 41.1804C38.5606 41.8598 38.8302 42.5115 39.3102 42.9924C39.7901 43.4733 40.4413 43.7441 41.1207 43.7454M41.1207 40.3719C41.2808 40.371 41.4376 40.4175 41.5712 40.5058C41.7048 40.594 41.8092 40.7199 41.8711 40.8675C41.9331 41.0152 41.9498 41.1779 41.9192 41.335C41.8886 41.4922 41.812 41.6367 41.6991 41.7502C41.5862 41.8638 41.4422 41.9413 41.2852 41.9729C41.1283 42.0045 40.9655 41.9888 40.8175 41.9278C40.6695 41.8667 40.5429 41.7631 40.4538 41.63C40.3648 41.497 40.3172 41.3405 40.3172 41.1804C40.3166 41.0745 40.3369 40.9694 40.377 40.8714C40.4171 40.7733 40.4761 40.6842 40.5508 40.609C40.6255 40.5339 40.7143 40.4743 40.8121 40.4336C40.9099 40.3929 41.0148 40.3719 41.1207 40.3719Z" fill="#003B67"/>
<path d="M41.7944 10.0208C41.7994 9.92608 41.7994 9.83113 41.7944 9.73638C41.7977 9.14204 41.5957 8.56478 41.2225 8.10219C40.8493 7.6396 40.3279 7.32003 39.7463 7.19751C39.1647 7.07499 38.5587 7.15702 38.0306 7.42975C37.5025 7.70247 37.0847 8.14916 36.848 8.69432C36.6112 9.23948 36.5699 9.84966 36.7311 10.4217C36.8923 10.9938 37.246 11.4927 37.7325 11.8341C38.2191 12.1755 38.8086 12.3384 39.4013 12.2954C39.9941 12.2523 40.5539 12.0059 40.986 11.5978C43.4236 12.9133 45.5518 14.735 47.2277 16.9404C48.9036 19.1459 50.0884 21.6843 50.7028 24.3853C51.3172 27.0863 51.3469 29.8874 50.79 32.6008C50.233 35.3143 49.1022 37.8772 47.4735 40.1177L41.5748 34.2141L38.9349 31.5942L38.7403 32.0433L38.8601 33.9896L40.6117 35.7362L46.4105 41.5001C43.2237 45.1625 38.7805 47.4982 33.9568 48.0469C29.1331 48.5956 24.2788 47.3174 20.3508 44.4643L26.0847 38.7254L29.044 36.0805V33.2859L24.1435 38.1865L18.3896 43.9154L18.3597 43.9553L18.3247 43.9853C18.3273 43.9968 18.3273 44.0087 18.3247 44.0202C18.3063 44.0457 18.2896 44.0723 18.2748 44.1C18.2596 44.1239 18.2462 44.1489 18.2349 44.1749L18.205 44.2547C18.2028 44.2813 18.2028 44.308 18.205 44.3346V44.4194C18.2025 44.446 18.2025 44.4727 18.205 44.4993V44.5841C18.205 44.614 18.205 44.639 18.205 44.6689V44.7538C18.205 44.7538 18.205 44.8037 18.205 44.8336L18.2399 44.9135C18.2512 44.9394 18.2646 44.9644 18.2798 44.9883L18.3247 45.0582L18.3846 45.128V45.158C18.3957 45.1707 18.4093 45.1809 18.4245 45.1879L18.4545 45.2229C20.6255 46.973 23.1207 48.2773 25.7969 49.061C28.4731 49.8446 31.2777 50.0922 34.0499 49.7894C36.822 49.4866 39.507 48.6395 41.951 47.2967C44.395 45.9538 46.5498 44.1417 48.2919 41.9642C48.3035 41.9447 48.3169 41.9263 48.3318 41.9093C50.2719 39.4815 51.6543 36.6567 52.3808 33.6351C53.1074 30.6134 53.1604 27.469 52.5361 24.4246C51.9118 21.3802 50.6255 18.5104 48.7683 16.0186C46.9111 13.5268 44.5285 11.4741 41.7894 10.0059M39.2443 10.5049C39.0842 10.5059 38.9274 10.4593 38.7938 10.3711C38.6602 10.2829 38.5558 10.1569 38.4939 10.0093C38.4319 9.86167 38.4152 9.69897 38.4458 9.54182C38.4765 9.38467 38.5531 9.24015 38.6659 9.12659C38.7788 9.01303 38.9228 8.93553 39.0798 8.90393C39.2367 8.87233 39.3995 8.88805 39.5476 8.94909C39.6956 9.01013 39.8221 9.11374 39.9112 9.2468C40.0002 9.37985 40.0478 9.53635 40.0478 9.69646C40.0478 9.91001 39.9633 10.1149 39.8128 10.2664C39.6622 10.4178 39.4579 10.5036 39.2443 10.5049Z" fill="#003B67"/>
<path d="M31.7536 3.09923C26.8795 3.09646 22.1059 4.48544 17.9942 7.10285C13.8824 9.72026 10.6035 13.4573 8.54304 17.8744C6.48254 22.2916 5.72609 27.2053 6.36266 32.0376C6.99923 36.87 9.00234 41.4202 12.1365 45.153L12.1664 45.188C14.938 48.481 18.4949 51.0223 22.5085 52.5769C26.5221 54.1315 30.8628 54.6492 35.1295 54.0823C39.3961 53.5154 43.451 51.8821 46.9194 49.3333C50.3878 46.7846 53.1577 43.4027 54.9732 39.5001C56.7886 35.5976 57.5911 31.3004 57.3063 27.0057C57.0215 22.711 55.6587 18.5573 53.3439 14.9287C51.0291 11.3 47.8368 8.31344 44.0623 6.24496C40.2878 4.17648 36.0527 3.09285 31.7486 3.09424M31.7486 52.5588C28.3928 52.5612 25.0743 51.8543 22.0109 50.4842C18.9475 49.1142 16.2082 47.1121 13.9729 44.6091L22.8458 35.7362L29.3033 29.2488L27.7463 28.3904L21.8976 34.2192L21.1041 35.0126L12.865 43.2517C9.5849 38.9838 7.84569 33.7314 7.93047 28.3493C8.01524 22.9672 9.919 17.7722 13.3319 13.6097C16.7449 9.44725 21.4661 6.56235 26.7272 5.4245C31.9883 4.28664 37.4797 4.96282 42.3077 7.34299C47.1356 9.72316 51.0159 13.6672 53.3172 18.5333C55.6184 23.3994 56.205 28.901 54.9816 34.1429C53.7582 39.3848 50.7967 44.0584 46.5792 47.4031C42.3617 50.7478 37.1364 52.5667 31.7536 52.5637" fill="#003B67"/>
<path d="M30.4414 15.6548V7.0514C30.4414 6.81846 30.3489 6.59506 30.1842 6.43034C30.0195 6.26563 29.7961 6.1731 29.5631 6.1731C29.3302 6.1731 29.1068 6.26563 28.9421 6.43034C28.7774 6.59506 28.6848 6.81846 28.6848 7.0514V7.71512C25.6783 8.15589 22.8014 9.23712 20.2488 10.8857C17.6962 12.5343 15.5273 14.7117 13.8889 17.2709C12.2505 19.83 11.1807 22.7111 10.7518 25.7194C10.323 28.7277 10.5451 31.793 11.4032 34.708C10.9413 35.0932 10.6297 35.6288 10.5232 36.2207C10.4166 36.8127 10.5219 37.4233 10.8206 37.9454C11.1193 38.4674 11.5922 38.8677 12.1565 39.0759C12.7208 39.2841 13.3404 39.287 13.9066 39.0841C14.4728 38.8811 14.9494 38.4853 15.2529 37.966C15.5565 37.4468 15.6675 36.8372 15.5665 36.2443C15.4655 35.6513 15.1589 35.1129 14.7006 34.7234C14.2423 34.3339 13.6615 34.1182 13.06 34.1142C12.2928 31.4651 12.0973 28.6833 12.4865 25.953C12.8758 23.2227 13.8408 20.6063 15.3177 18.2772C16.7946 15.9481 18.7497 13.9595 21.0533 12.4431C23.357 10.9268 25.9566 9.91735 28.6798 9.48171V18.0901L30.4414 19.2678V15.6548ZM13.04 35.8708C13.1999 35.8708 13.3562 35.9182 13.4892 36.007C13.6221 36.0958 13.7257 36.2221 13.7869 36.3698C13.8481 36.5175 13.8641 36.6801 13.8329 36.8369C13.8017 36.9937 13.7248 37.1378 13.6117 37.2509C13.4986 37.3639 13.3546 37.4409 13.1978 37.4721C13.0409 37.5033 12.8784 37.4873 12.7307 37.4261C12.5829 37.3649 12.4567 37.2613 12.3678 37.1283C12.279 36.9954 12.2316 36.8391 12.2316 36.6792C12.2309 36.5729 12.2514 36.4674 12.2918 36.369C12.3322 36.2707 12.3917 36.1813 12.4669 36.1061C12.5421 36.0309 12.6315 35.9713 12.7299 35.931C12.8283 35.8906 12.9337 35.8701 13.04 35.8708Z" fill="#003B67"/>
<path d="M34.8226 16.0289V7.04627C34.8226 6.81333 34.7301 6.58993 34.5654 6.42522C34.4007 6.26051 34.1773 6.16797 33.9443 6.16797C33.7114 6.16797 33.488 6.26051 33.3233 6.42522C33.1586 6.58993 33.066 6.81333 33.066 7.04627V14.971V21.0492L34.8226 22.4316V16.0289Z" fill="#003B67"/>
<path d="M35.8854 34.4933V34.2987C35.5361 32.7367 33.0409 31.3644 30.6356 30.0569C29.8321 30.2715 29.2233 30.6557 29.0836 31.2995L29.0387 37.0883C29.1911 36.9362 29.3727 36.8163 29.5724 36.7357C29.7722 36.6551 29.9861 36.6155 30.2014 36.6192C30.955 36.6192 35.8854 36.2549 35.8854 34.4933Z" fill="#27AAE1"/>
<path d="M33.5751 23.5845H33.146V24.0486H33.5751V23.5845Z" fill="#1B75BC"/>
<path d="M30.2115 21.219H29.7823V21.6831H30.2115V21.219Z" fill="#1B75BC"/>
<path d="M27.1077 17.6709H26.6785V18.135H27.1077V17.6709Z" fill="#1B75BC"/>
<path d="M34.5883 28.3203H34.1591V28.7844H34.5883V28.3203Z" fill="#1B75BC"/>
<path d="M30.2115 24.7671H29.7823V25.2362H30.2115V24.7671Z" fill="#1B75BC"/>
<path d="M34.5883 23.5845H34.1591V24.0486H34.5883V23.5845Z" fill="#1B75BC"/>
<path d="M26.304 18.8535H25.8748V19.3176H26.304V18.8535Z" fill="#1B75BC"/>
<path d="M31.0151 20.0364H30.586V20.5005H31.0151V20.0364Z" fill="#1B75BC"/>
<path d="M26.7082 22.4019L26.8429 22.5665V22.4019H26.7082Z" fill="#1B75BC"/>
<path d="M33.3105 24.7671H32.8813V25.2362H33.3105V24.7671Z" fill="#1B75BC"/>
<path d="M35.8506 29.997V34.2987C35.8699 34.3637 35.8816 34.4307 35.8855 34.4983V24.9817C35.7795 23.9773 35.3645 23.0305 34.6978 22.2719C33.4203 21.0144 26.1643 16.7376 25.7151 15.7495C25.6141 16.092 25.5341 16.4403 25.4756 16.7925V17.1019H25.4506C25.3756 17.6307 25.3439 18.1648 25.3558 18.6988H25.4506V19.4623H25.3708C25.4555 20.2097 25.697 20.9307 26.0794 21.5783V21.214H25.9497V21.0643H26.2691V21.8328L26.3539 21.9426C26.4703 22.0989 26.5901 22.2486 26.7132 22.3917V22.247H27.0276V22.746C27.8172 23.6631 28.6818 24.5127 29.6126 25.2861V24.6972C29.6129 24.685 29.6157 24.6729 29.6209 24.6617C29.626 24.6505 29.6334 24.6406 29.6426 24.6324C29.6633 24.6238 29.6867 24.6238 29.7074 24.6324H30.3113C30.332 24.6238 30.3554 24.6238 30.3761 24.6324C30.3853 24.6406 30.3927 24.6505 30.3978 24.6617C30.403 24.6729 30.4058 24.685 30.4061 24.6972V25.2861C30.4057 25.2977 30.4029 25.309 30.3977 25.3193C30.3925 25.3297 30.3852 25.3388 30.3761 25.346C30.3684 25.3554 30.3584 25.3627 30.347 25.3671C30.3356 25.3715 30.3233 25.3728 30.3113 25.3709H29.6875C30.0218 25.6504 30.2264 25.7951 30.2264 25.7951L26.6034 23.5944C26.6034 23.5944 26.0096 23.2201 25.9946 22.8907C25.9946 22.8907 24.9316 26.5137 27.7612 28.3801C28.5796 28.9241 29.5827 29.468 30.6057 30.022C32.6018 29.473 35.8506 29.9671 35.8506 29.9671M28.7892 19.8815H29.1086V20.6501H28.9439V20.0362H28.8042L28.7892 19.8815ZM28.2552 18.6988H28.5746V19.4623H28.39V18.8485H28.2552V18.6988ZM27.5117 17.5161H27.8261V18.2846H27.6464V17.6658H27.5117V17.5161ZM27.2422 20.0362V19.8815H27.5616V20.6501H27.3769V20.0362H27.2422ZM26.4986 17.6109C26.4984 17.5869 26.5073 17.5637 26.5236 17.546C26.5323 17.5363 26.5431 17.5285 26.5552 17.5233C26.5673 17.5181 26.5803 17.5157 26.5934 17.5161H27.1973C27.2236 17.5165 27.2487 17.5272 27.2671 17.546C27.2748 17.567 27.2748 17.59 27.2671 17.6109V18.1948C27.2744 18.2141 27.2744 18.2354 27.2671 18.2547C27.2487 18.2735 27.2236 18.2842 27.1973 18.2846H26.5934C26.5803 18.285 26.5673 18.2826 26.5552 18.2774C26.5431 18.2722 26.5323 18.2645 26.5236 18.2547C26.5077 18.2388 26.4987 18.2173 26.4986 18.1948V17.6109ZM26.7082 18.8535V18.6988H27.0226V19.4623H26.843V18.8485L26.7082 18.8535ZM26.4587 18.7288C26.4677 18.736 26.4751 18.7451 26.4803 18.7554C26.4854 18.7658 26.4883 18.7771 26.4886 18.7886V19.3775C26.4904 19.394 26.4877 19.4106 26.4806 19.4256C26.4736 19.4405 26.4625 19.4533 26.4487 19.4623C26.4279 19.4709 26.4046 19.4709 26.3838 19.4623H25.785C25.7642 19.4709 25.7409 19.4709 25.7201 19.4623C25.7047 19.4442 25.6959 19.4213 25.6952 19.3975V18.8086C25.6957 18.7862 25.7046 18.7649 25.7201 18.7487C25.7283 18.7396 25.7383 18.7322 25.7495 18.727C25.7606 18.7219 25.7727 18.7191 25.785 18.7188H26.3938C26.4061 18.7191 26.4182 18.7219 26.4294 18.727C26.4405 18.7322 26.4505 18.7396 26.4587 18.7487M26.279 18.3046H26.0994V17.6658H25.9497V17.5161H26.2691L26.279 18.3046ZM25.6952 16.3533H26.0096V17.1219H25.8299V16.4681H25.6952V16.3533ZM25.4506 17.6658V17.5161H25.765V18.2846H25.5854V17.6658H25.4506ZM26.0345 20.66H25.8549V20.0462H25.7201V19.8915H26.0345V20.66ZM26.3489 20.66C26.3281 20.6686 26.3048 20.6686 26.284 20.66C26.2678 20.6423 26.2589 20.6192 26.2591 20.5952V19.9614C26.2589 19.9374 26.2678 19.9142 26.284 19.8965C26.2915 19.8865 26.3013 19.8785 26.3127 19.8733C26.324 19.8681 26.3365 19.8658 26.3489 19.8666H26.9478C26.9609 19.8661 26.9739 19.8686 26.986 19.8738C26.9981 19.879 27.0089 19.8867 27.0176 19.8965C27.0338 19.9142 27.0428 19.9374 27.0426 19.9614V20.5453C27.0428 20.5693 27.0338 20.5924 27.0176 20.6101C26.995 20.6177 26.9704 20.6177 26.9478 20.6101L26.3489 20.66ZM26.6184 21.8477C26.5923 21.8464 26.5675 21.8358 26.5485 21.8178C26.5331 21.7996 26.5243 21.7768 26.5236 21.7529V21.1591C26.5243 21.1352 26.5331 21.1124 26.5485 21.0942C26.5575 21.085 26.5685 21.078 26.5806 21.0737C26.5927 21.0694 26.6056 21.0678 26.6184 21.0692H27.1973C27.21 21.0685 27.2227 21.0703 27.2347 21.0746C27.2468 21.0789 27.2578 21.0856 27.2671 21.0942C27.274 21.1153 27.274 21.138 27.2671 21.1591V21.7429C27.274 21.764 27.274 21.7867 27.2671 21.8078C27.2475 21.8248 27.2231 21.8353 27.1973 21.8378L26.6184 21.8477ZM28.0606 22.9356C28.0599 22.9595 28.0511 22.9824 28.0357 23.0005C28.0275 23.0097 28.0175 23.0171 28.0063 23.0222C27.9952 23.0274 27.9831 23.0302 27.9708 23.0305H27.337C27.3109 23.0291 27.2861 23.0185 27.2671 23.0005C27.2603 22.9794 27.2603 22.9567 27.2671 22.9356V22.3468C27.2613 22.3272 27.2613 22.3064 27.2671 22.2869C27.2897 22.2785 27.3145 22.2785 27.337 22.2869H27.9458C27.9666 22.2783 27.9899 22.2783 28.0107 22.2869C28.0251 22.3037 28.0339 22.3247 28.0357 22.3468L28.0606 22.9356ZM28.5996 23.0305H28.4149V22.4117H28.2802V22.2619H28.5996V23.0305ZM28.5996 20.5702C28.6 20.5826 28.5975 20.5949 28.5923 20.6062C28.5871 20.6174 28.5793 20.6273 28.5696 20.6351C28.5487 20.6427 28.5257 20.6427 28.5048 20.6351H27.871C27.8499 20.6419 27.8272 20.6419 27.8061 20.6351C27.7985 20.6141 27.7985 20.5912 27.8061 20.5702V19.9614C27.7985 19.9404 27.7985 19.9175 27.8061 19.8965C27.8143 19.8873 27.8243 19.88 27.8354 19.8748C27.8466 19.8697 27.8587 19.8669 27.871 19.8666H28.4798C28.5042 19.8688 28.527 19.8795 28.5444 19.8968C28.5617 19.9141 28.5724 19.937 28.5746 19.9614L28.5996 20.5702ZM29.1335 24.2082H28.9439V23.5944H28.8042V23.4546H29.1236L29.1335 24.2082ZM29.403 21.8477H29.2234V21.2289H29.0886V21.0792H29.403V21.8477ZM29.6126 19.3875C29.6123 19.3998 29.6095 19.4119 29.6044 19.423C29.5992 19.4342 29.5918 19.4442 29.5827 19.4524C29.5725 19.4572 29.5615 19.4598 29.5502 19.4598C29.539 19.4598 29.5279 19.4572 29.5178 19.4524H28.884C28.8632 19.461 28.8399 19.461 28.8191 19.4524C28.8022 19.4347 28.7917 19.4119 28.7892 19.3875V18.7986C28.792 18.7758 28.8026 18.7547 28.8191 18.7387C28.8273 18.7296 28.8373 18.7222 28.8485 18.717C28.8596 18.7119 28.8717 18.7091 28.884 18.7088H29.4928C29.5052 18.7084 29.5176 18.7109 29.5288 18.7161C29.5401 18.7213 29.55 18.7291 29.5577 18.7387C29.5667 18.746 29.5741 18.7551 29.5793 18.7654C29.5844 18.7757 29.5873 18.7871 29.5877 18.7986L29.6126 19.3875ZM33.7097 25.9498V25.8001H34.0241V26.5686H33.8494V25.9498H33.7097ZM33.6698 24.1982H33.056C33.0336 24.1976 33.0122 24.1887 32.9961 24.1733C32.9876 24.1648 32.981 24.1547 32.9767 24.1435C32.9724 24.1323 32.9705 24.1203 32.9711 24.1084V23.5245C32.9705 23.5125 32.9724 23.5006 32.9767 23.4894C32.981 23.4782 32.9876 23.4681 32.9961 23.4596C33.0155 23.4528 33.0366 23.4528 33.056 23.4596H33.6698C33.6909 23.4528 33.7136 23.4528 33.7347 23.4596C33.7419 23.4806 33.7419 23.5035 33.7347 23.5245V24.1084C33.7419 24.1294 33.7419 24.1522 33.7347 24.1733C33.7165 24.1887 33.6936 24.1975 33.6698 24.1982ZM33.9792 27.1325V26.9828H34.2936V27.7513H34.1139V27.1325H33.9792ZM34.7677 28.8442C34.7718 28.8537 34.7739 28.8639 34.7739 28.8742C34.7739 28.8845 34.7718 28.8947 34.7677 28.9041C34.7599 28.9138 34.75 28.9216 34.7388 28.9267C34.7275 28.9319 34.7152 28.9344 34.7028 28.9341H34.094C34.0823 28.9345 34.0707 28.932 34.0602 28.9267C34.0497 28.9215 34.0408 28.9137 34.0341 28.9041C34.025 28.8969 34.0177 28.8878 34.0125 28.8775C34.0074 28.8671 34.0045 28.8558 34.0041 28.8442V28.2554C34.0053 28.2307 34.016 28.2074 34.0341 28.1905C34.0499 28.1746 34.0715 28.1656 34.094 28.1655H34.7028C34.7268 28.1654 34.75 28.1743 34.7677 28.1905C34.7757 28.2114 34.7757 28.2345 34.7677 28.2554V28.8442ZM35.3066 28.9341H35.127V28.3202H34.9922V28.1655H35.3066V28.9341ZM34.8076 24.6174H35.127V25.3809H34.9323V24.7671H34.7976L34.8076 24.6174ZM34.8076 25.8001H35.127V26.5686H34.9323V25.9498H34.7976L34.8076 25.8001ZM34.0041 22.252H34.3185V23.0205H34.1389V22.4017H34.0041V22.252ZM34.0041 23.5245C34.0044 23.5122 34.0072 23.5001 34.0124 23.489C34.0175 23.4778 34.0249 23.4678 34.0341 23.4596C34.0534 23.4523 34.0747 23.4523 34.094 23.4596H34.7028C34.7237 23.452 34.7467 23.452 34.7677 23.4596C34.7763 23.4804 34.7763 23.5037 34.7677 23.5245V24.1084C34.7763 24.1291 34.7763 24.1525 34.7677 24.1733C34.75 24.1895 34.7268 24.1984 34.7028 24.1982H34.094C34.0715 24.1982 34.0499 24.1892 34.0341 24.1733C34.0249 24.1651 34.0175 24.1551 34.0124 24.1439C34.0072 24.1328 34.0044 24.1207 34.0041 24.1084V23.5245ZM33.4352 22.252H33.7496V23.0205H33.57V22.4017H33.4352V22.252ZM32.9013 22.252H33.2157V23.0205H33.036V22.4017H32.9013V22.252ZM31.1447 21.219V21.0692H31.459V21.8378H31.2794V21.219H31.1447ZM30.4011 19.9614C30.4007 19.949 30.4032 19.9367 30.4084 19.9254C30.4136 19.9141 30.4213 19.9043 30.431 19.8965C30.4392 19.8873 30.4492 19.88 30.4604 19.8748C30.4715 19.8697 30.4836 19.8669 30.4959 19.8666H31.1047C31.117 19.8669 31.1291 19.8697 31.1403 19.8748C31.1514 19.88 31.1614 19.8873 31.1696 19.8965C31.1787 19.9045 31.1857 19.9146 31.1901 19.9259C31.1944 19.9372 31.196 19.9494 31.1946 19.9614V20.5453C31.196 20.5573 31.1944 20.5695 31.1901 20.5808C31.1857 20.5921 31.1787 20.6021 31.1696 20.6101C31.1485 20.617 31.1258 20.617 31.1047 20.6101H30.4959C30.4748 20.617 30.4521 20.617 30.431 20.6101C30.4213 20.6024 30.4136 20.5925 30.4084 20.5812C30.4032 20.57 30.4007 20.5577 30.4011 20.5453V19.9614ZM30.6107 21.204V21.0543H30.94V21.8228H30.7604V21.204H30.6107ZM29.8671 19.8666H30.1815V20.6351H30.0019V20.0213H29.8671V19.8666ZM30.1815 24.1832H30.0019V23.5694H29.8671V23.4546H30.1815V24.1832ZM30.3911 21.728C30.3908 21.7403 30.388 21.7524 30.3829 21.7635C30.3777 21.7747 30.3703 21.7847 30.3612 21.7928C30.353 21.802 30.343 21.8094 30.3318 21.8145C30.3207 21.8197 30.3086 21.8225 30.2963 21.8228H29.6925C29.6802 21.8225 29.6681 21.8197 29.6569 21.8145C29.6458 21.8094 29.6358 21.802 29.6276 21.7928C29.6184 21.7847 29.611 21.7747 29.6059 21.7635C29.6007 21.7524 29.5979 21.7403 29.5976 21.728V21.1591C29.5979 21.1468 29.6007 21.1347 29.6059 21.1235C29.611 21.1124 29.6184 21.1024 29.6276 21.0942C29.6353 21.0847 29.6453 21.0775 29.6567 21.0731C29.6681 21.0687 29.6804 21.0674 29.6925 21.0692H30.2963C30.3083 21.0674 30.3207 21.0687 30.3321 21.0731C30.3434 21.0775 30.3535 21.0847 30.3612 21.0942C30.3703 21.1024 30.3777 21.1124 30.3829 21.1235C30.388 21.1347 30.3908 21.1468 30.3911 21.1591V21.728ZM30.4959 24.1832C30.4721 24.1825 30.4492 24.1737 30.431 24.1583C30.4219 24.1501 30.4145 24.1401 30.4093 24.129C30.4042 24.1178 30.4014 24.1057 30.4011 24.0934V23.5095C30.4067 23.4867 30.421 23.467 30.441 23.4546C30.4621 23.4478 30.4848 23.4478 30.5059 23.4546H31.1147C31.1358 23.4478 31.1585 23.4478 31.1796 23.4546C31.1881 23.4631 31.1947 23.4732 31.199 23.4844C31.2033 23.4956 31.2052 23.5076 31.2045 23.5195V24.1034C31.2052 24.1153 31.2033 24.1273 31.199 24.1385C31.1947 24.1497 31.1881 24.1598 31.1796 24.1683C31.1614 24.1837 31.1385 24.1925 31.1147 24.1932L30.4959 24.1832ZM31.464 25.3659H31.2844V24.7521H31.1496V24.6024H31.464V25.3659ZM31.6736 23.0055H31.489V22.3867H31.3592V22.237H31.6736V23.0055ZM31.7136 21.7928C31.7044 21.7847 31.697 21.7747 31.6919 21.7635C31.6867 21.7524 31.6839 21.7403 31.6836 21.728V21.1591C31.6839 21.1468 31.6867 21.1347 31.6919 21.1235C31.697 21.1124 31.7044 21.1024 31.7136 21.0942C31.7205 21.0851 31.7296 21.0781 31.7402 21.0737C31.7507 21.0693 31.7621 21.0678 31.7734 21.0692H32.3823C32.395 21.0678 32.408 21.0694 32.4201 21.0737C32.4322 21.078 32.4431 21.085 32.4521 21.0942C32.4607 21.115 32.4607 21.1383 32.4521 21.1591V21.7429C32.4607 21.7637 32.4607 21.787 32.4521 21.8078C32.4331 21.8258 32.4084 21.8364 32.3823 21.8378H31.7734C31.7619 21.8371 31.7507 21.8341 31.7404 21.8289C31.7301 21.8238 31.721 21.8166 31.7136 21.8078M32.7116 22.9257C32.7094 22.9501 32.6987 22.9729 32.6814 22.9902C32.664 23.0075 32.6412 23.0182 32.6168 23.0205H32.008C31.9963 23.0209 31.9847 23.0184 31.9742 23.0131C31.9638 23.0079 31.9548 23.0001 31.9481 22.9905C31.9389 22.9823 31.9316 22.9724 31.9264 22.9612C31.9213 22.95 31.9184 22.9379 31.9182 22.9257V22.3368C31.9188 22.3253 31.9218 22.3141 31.927 22.3038C31.9321 22.2935 31.9393 22.2843 31.9481 22.2769C31.9573 22.2721 31.9676 22.2696 31.978 22.2696C31.9885 22.2696 31.9987 22.2721 32.008 22.2769H32.6168C32.6376 22.2683 32.6609 22.2683 32.6817 22.2769C32.6905 22.2843 32.6977 22.2935 32.7028 22.3038C32.708 22.3141 32.711 22.3253 32.7116 22.3368V22.9257ZM32.7466 25.356C32.7397 25.3366 32.7397 25.3155 32.7466 25.2961V24.7072C32.7458 24.6952 32.7477 24.6832 32.7519 24.672C32.7562 24.6608 32.7628 24.6506 32.7713 24.6421C32.7797 24.6336 32.7899 24.627 32.8012 24.6227C32.8124 24.6185 32.8244 24.6167 32.8364 24.6174H33.4502C33.4622 24.6167 33.4742 24.6185 33.4854 24.6227C33.4966 24.627 33.5068 24.6336 33.5153 24.6421C33.5238 24.6506 33.5304 24.6608 33.5347 24.672C33.5389 24.6832 33.5408 24.6952 33.54 24.7072V25.2961C33.5469 25.3155 33.5469 25.3366 33.54 25.356C33.5316 25.3645 33.5214 25.3711 33.5103 25.3754C33.4991 25.3797 33.4871 25.3816 33.4752 25.3809H32.7865C32.7745 25.3816 32.7626 25.3797 32.7514 25.3754C32.7402 25.3711 32.73 25.3645 32.7216 25.356" fill="#1B75BC"/>
<path d="M28.3903 20.0364H27.9612V20.5005H28.3903V20.0364Z" fill="#1B75BC"/>
<path d="M27.8513 22.4019H27.4222V22.866H27.8513V22.4019Z" fill="#1B75BC"/>
<path d="M27.1077 21.219H26.6785V21.6831H27.1077V21.219Z" fill="#1B75BC"/>
<path d="M31.0151 23.5845H30.586V24.0486H31.0151V23.5845Z" fill="#1B75BC"/>
<path d="M26.843 20.0364H26.4138V20.5005H26.843V20.0364Z" fill="#1B75BC"/>
<path d="M29.4035 18.8535H28.9743V19.3176H29.4035V18.8535Z" fill="#1B75BC"/>
<path d="M32.507 22.4019H32.0728V22.866H32.507V22.4019Z" fill="#1B75BC"/>
<path d="M32.2978 21.219H31.8687V21.6831H32.2978V21.219Z" fill="#1B75BC"/>
<path d="M35.8508 34.2986V29.9969C35.8508 29.9969 32.6221 29.4979 30.606 30.0518C33.0113 31.3643 35.5065 32.7316 35.8508 34.2986Z" fill="#1B75BC"/>
<path d="M36.1351 34.6679C36.1351 36.4345 31.1747 36.7838 30.4211 36.7838C29.9891 36.7797 29.5729 36.9465 29.2634 37.2479C29.2581 37.2726 29.2581 37.2981 29.2634 37.3228C29.2634 37.3228 29.3682 37.742 30.5808 37.742H34.2937C34.2937 37.742 36.5194 37.6472 37.5873 36.5992C38.6552 35.5512 38.795 35.0672 38.8598 34.4483C38.9247 33.8295 38.8149 32.6019 38.9197 31.9981C39.0245 31.3942 39.4188 30.6207 40.9159 30.6207C40.9159 30.6207 39.1942 29.3332 38.3408 29.1835C37.6073 29.0538 36.4545 29.3881 36.1401 29.9969V34.6629L36.1351 34.6679ZM38.8648 30.7804C38.8021 30.7785 38.7414 30.7581 38.6902 30.7218C38.639 30.6856 38.5996 30.635 38.577 30.5765C38.5543 30.518 38.5494 30.4541 38.5628 30.3928C38.5763 30.3316 38.6074 30.2756 38.6525 30.2319C38.6975 30.1882 38.7544 30.1588 38.8161 30.1473C38.8778 30.1357 38.9415 30.1426 38.9992 30.167C39.057 30.1915 39.1063 30.2324 39.141 30.2847C39.1757 30.337 39.1942 30.3983 39.1942 30.461C39.1936 30.5036 39.1845 30.5457 39.1676 30.5848C39.1507 30.6239 39.1263 30.6593 39.0957 30.689C39.0651 30.7186 39.029 30.742 38.9894 30.7577C38.9497 30.7734 38.9074 30.7811 38.8648 30.7804Z" fill="#1B75BC"/>
<path d="M23.2952 15.1506H22.6863C22.6741 15.1509 22.662 15.1537 22.6508 15.1589C22.6396 15.164 22.6297 15.1714 22.6215 15.1806C22.6146 15.1999 22.6146 15.2211 22.6215 15.2405V15.8293C22.6142 15.8486 22.6142 15.8699 22.6215 15.8892C22.6297 15.8984 22.6396 15.9058 22.6508 15.9109C22.662 15.9161 22.6741 15.9189 22.6863 15.9192H23.2952C23.3075 15.9189 23.3196 15.9161 23.3307 15.9109C23.3419 15.9058 23.3519 15.8984 23.36 15.8892C23.3649 15.88 23.3674 15.8697 23.3674 15.8593C23.3674 15.8488 23.3649 15.8386 23.36 15.8293V15.2405C23.3642 15.231 23.3663 15.2208 23.3663 15.2105C23.3663 15.2002 23.3642 15.19 23.36 15.1806C23.3519 15.1714 23.3419 15.164 23.3307 15.1589C23.3196 15.1537 23.3075 15.1509 23.2952 15.1506ZM23.2103 15.7644H22.7762V15.3003H23.2103V15.7644Z" fill="#1B75BC"/>
<path d="M23.7444 15.9192H23.9241V15.1506H23.6097V15.3003H23.7444V15.9192Z" fill="#1B75BC"/>
<path d="M23.2952 16.3335H22.6863C22.6741 16.3338 22.662 16.3366 22.6508 16.3417C22.6396 16.3469 22.6297 16.3543 22.6215 16.3634C22.6146 16.3828 22.6146 16.4039 22.6215 16.4233V17.0122C22.6142 17.0315 22.6142 17.0528 22.6215 17.0721C22.6297 17.0812 22.6396 17.0886 22.6508 17.0938C22.662 17.0989 22.6741 17.1017 22.6863 17.102H23.2952C23.3075 17.1017 23.3196 17.0989 23.3307 17.0938C23.3419 17.0886 23.3519 17.0812 23.36 17.0721C23.3649 17.0628 23.3674 17.0525 23.3674 17.0421C23.3674 17.0317 23.3649 17.0214 23.36 17.0122V16.4233C23.3642 16.4139 23.3663 16.4037 23.3663 16.3934C23.3663 16.3831 23.3642 16.3729 23.36 16.3634C23.3519 16.3543 23.3419 16.3469 23.3307 16.3417C23.3196 16.3366 23.3075 16.3338 23.2952 16.3335ZM23.2103 16.9673H22.7762V16.4682H23.2103V16.9673Z" fill="#1B75BC"/>
<path d="M23.6994 17.102H24.3083C24.3319 17.1 24.3542 17.09 24.3714 17.0737C24.3886 17.0574 24.3998 17.0357 24.4031 17.0122V16.4233C24.4003 16.4005 24.3897 16.3794 24.3731 16.3634C24.3649 16.3543 24.355 16.3469 24.3438 16.3417C24.3326 16.3366 24.3205 16.3338 24.3083 16.3335H23.6994C23.6872 16.3338 23.6751 16.3366 23.6639 16.3417C23.6527 16.3469 23.6428 16.3543 23.6346 16.3634C23.6304 16.3729 23.6283 16.3831 23.6283 16.3934C23.6283 16.4037 23.6304 16.4139 23.6346 16.4233V17.0122C23.6298 17.0214 23.6272 17.0317 23.6272 17.0421C23.6272 17.0525 23.6298 17.0628 23.6346 17.0721C23.6428 17.0812 23.6527 17.0886 23.6639 17.0938C23.6751 17.0989 23.6872 17.1017 23.6994 17.102ZM23.7893 16.4882H24.2184V16.9673H23.7893V16.4882Z" fill="#1B75BC"/>
<path d="M24.7571 17.102H24.9368V16.3335H24.6224V16.4882H24.7571V17.102Z" fill="#1B75BC"/>
<path d="M25.4509 16.3335H25.1365V16.4682H25.2713V17.082H25.4509L25.4958 16.7726L25.4509 16.3335Z" fill="#1B75BC"/>
<path d="M22.8611 17.6708H22.9959V18.2846H23.1805V17.5161H22.8611V17.6708Z" fill="#1B75BC"/>
<path d="M24.1931 18.1948V17.6109C24.2 17.5898 24.2 17.5671 24.1931 17.5461C24.1762 17.528 24.1529 17.5173 24.1282 17.5161H23.4895C23.4648 17.5173 23.4415 17.528 23.4246 17.5461C23.4177 17.5671 23.4177 17.5898 23.4246 17.6109V18.1948C23.4173 18.2141 23.4173 18.2354 23.4246 18.2547C23.4415 18.2727 23.4648 18.2835 23.4895 18.2846H24.1033C24.128 18.2835 24.1513 18.2727 24.1682 18.2547C24.1754 18.2354 24.1754 18.2141 24.1682 18.1948M23.9885 18.1349H23.5544V17.6658H23.9885V18.1349Z" fill="#1B75BC"/>
<path d="M25.2063 18.1948V17.611C25.2061 17.5987 25.2032 17.5866 25.1981 17.5754C25.1929 17.5643 25.1856 17.5543 25.1764 17.5461C25.1687 17.5364 25.1588 17.5287 25.1475 17.5235C25.1362 17.5183 25.1239 17.5158 25.1115 17.5162H24.5027C24.4911 17.5165 24.4798 17.5194 24.4695 17.5245C24.4591 17.5297 24.45 17.5371 24.4428 17.5461C24.4337 17.5543 24.4263 17.5643 24.4211 17.5754C24.416 17.5866 24.4132 17.5987 24.4129 17.611V18.1948C24.4125 18.2065 24.415 18.2181 24.4202 18.2286C24.4254 18.2391 24.4332 18.248 24.4428 18.2547C24.45 18.2638 24.4591 18.2711 24.4695 18.2763C24.4798 18.2814 24.4911 18.2843 24.5027 18.2847H25.1115C25.1239 18.2851 25.1362 18.2826 25.1475 18.2774C25.1588 18.2722 25.1687 18.2644 25.1764 18.2547C25.186 18.248 25.1938 18.2391 25.199 18.2286C25.2042 18.2181 25.2068 18.2065 25.2063 18.1948ZM25.0217 18.135H24.5925V17.6659H25.0217V18.135Z" fill="#1B75BC"/>
<path d="M24.847 18.6988H24.2382C24.2258 18.6984 24.2134 18.7009 24.2022 18.7061C24.1909 18.7113 24.181 18.719 24.1733 18.7287C24.1641 18.7369 24.1567 18.7469 24.1516 18.758C24.1464 18.7692 24.1436 18.7813 24.1433 18.7936V19.3775C24.1436 19.3898 24.1464 19.4019 24.1516 19.413C24.1567 19.4242 24.1641 19.4342 24.1733 19.4423C24.1834 19.4472 24.1945 19.4497 24.2057 19.4497C24.217 19.4497 24.228 19.4472 24.2382 19.4423H24.847C24.8562 19.4472 24.8665 19.4497 24.8769 19.4497C24.8873 19.4497 24.8976 19.4472 24.9069 19.4423C24.916 19.4342 24.9234 19.4242 24.9286 19.413C24.9337 19.4019 24.9365 19.3898 24.9368 19.3775V18.7936C24.9365 18.7813 24.9337 18.7692 24.9286 18.758C24.9234 18.7469 24.916 18.7369 24.9069 18.7287C24.9002 18.7191 24.8912 18.7113 24.8807 18.7061C24.8703 18.7009 24.8587 18.6984 24.847 18.6988ZM24.7572 19.3176H24.328V18.8535H24.7572V19.3176Z" fill="#1B75BC"/>
<path d="M25.1565 18.6988V18.8535H25.2912V19.4624H25.3911C25.3611 19.2029 25.3412 18.9633 25.3312 18.6938L25.1565 18.6988Z" fill="#1B75BC"/>
<path d="M26.0995 21.8378H26.2642C26.2043 21.7546 26.1494 21.6698 26.0995 21.5833V21.8378Z" fill="#1B75BC"/>
<path d="M26.8432 23.0208H27.0229V22.7762L26.8432 22.5667V23.0208Z" fill="#1B75BC"/>
<path d="M29.6278 25.3561C29.6348 25.3651 29.6439 25.3722 29.6544 25.3766C29.665 25.381 29.6764 25.3825 29.6877 25.381L29.6079 25.3162C29.6033 25.3291 29.6033 25.3432 29.6079 25.3561" fill="#1B75BC"/>
</g>
<defs>
<clipPath id="clip0_2175_660">
<rect width="259" height="58.8863" fill="white"/>
</clipPath>
</defs>
</svg>
